# xmcd
#
# Track frame offsets:
#	150
#	16710
#	35880
#	51137
#	67259
#	81076
#	99561
#	115671
#	136358
#	149086
#	166503
#	181851
#	200058
#	218770
#	234328
#	250328
#	271545
#	291098
#	307235
#
# Disc length: 4323 seconds
#
# Revision: 1
# Processed by: cddbd v1.5.2PL0 Copyright (c) Steve Scherf et al.
# Submitted via: audiograbber 1.83.01
#
DISCID=1510e113
DTITLE=Various Artist - musice maestro clup pk 3
DYEAR=2002
DGENRE=Karaoke
TTITLE0=Billy Ray Cyrus - Achy Breaky Heart
TTITLE1=Faith Hill - Breathe
TTITLE2=Brooks and Dunn - My Maria
TTITLE3=Forester Sisters - Men
TTITLE4=LeAnn Rimes - Blue
TTITLE5=Hank Williams Jr. - Country Boy Can Survive
TTITLE6=Mary Chapin Carpenter - Down At The Twist And Shout
TTITLE7=Shania Twain - I'm Outta Here
TTITLE8=Alan Jackson - Chattahoochie
TTITLE9=Shania Twain - Any Man Of Mine
TTITLE10=Mary Chapin Carpenter - I Feel Lucky
TTITLE11=Lee Ann Womack - I Hope You Dance
TTITLE12=Lonestar - Amazed
TTITLE13=Confederate Railroad - Trashy Woman
TTITLE14=Reba McEntire - The Greatest Man I Never Know
TTITLE15=John Michael Montgomery - I Swear
TTITLE16=Trisha Yearwood - How Do I Live
TTITLE17=Brooks and Dunn - Boot Scootin' Boogie
TTITLE18=Garth Brooks - Friends In Low Places
EXTD=
EXTT0=
EXTT1=
EXTT2=
EXTT3=
EXTT4=
EXTT5=
EXTT6=
EXTT7=
EXTT8=
EXTT9=
EXTT10=
EXTT11=
EXTT12=
EXTT13=
EXTT14=
EXTT15=
EXTT16=
EXTT17=
EXTT18=
PLAYORDER=
